  
  <svg
                  width="172"
                  height="50"
                  viewBox="0 0 172 50"
                  fill="none"
                  xmlns="http://www.w3.org/2000/svg"
                >
                  <path
                    d="M15.8285 19.3535C14.21 21.4843 11.7115 22.7441 9.06537 22.7441C4.34267 22.7441 0.5 18.811 0.5 13.9768C0.5 9.14255 4.34267 5.20947 9.06537 5.20947C10.4548 5.20947 11.7809 5.541 13.0075 6.19199C14.0563 6.74955 14.9966 7.53918 15.7411 8.48553C15.8104 8.57595 15.7923 8.70856 15.6989 8.77486L12.8628 10.8484C12.7754 10.9117 12.6549 10.8996 12.5825 10.8183C11.6935 9.77847 10.4306 9.18776 9.06537 9.18776C6.4825 9.18776 4.37883 11.3366 4.37883 13.9768C4.37883 16.6169 6.47949 18.7658 9.06537 18.7658C10.4668 18.7658 11.7899 18.1208 12.679 17.0238C12.7453 16.9394 12.8689 16.9273 12.9532 16.9906L15.7832 19.0611C15.8767 19.1305 15.8978 19.2631 15.8285 19.3565V19.3535Z"
                    fill="#E52322"
                  />
                  <path
                    d="M29.7585 16.0654C29.7585 19.7092 26.7537 22.6748 23.0587 22.6748C19.3637 22.6748 16.3589 19.7092 16.3589 16.0654C16.3589 12.4217 19.3637 9.45605 23.0587 9.45605C26.7537 9.45605 29.7585 12.4217 29.7585 16.0654ZM25.9791 16.0654C25.9791 14.4771 24.6681 13.1842 23.0587 13.1842C21.4493 13.1842 20.1383 14.4771 20.1383 16.0654C20.1383 17.6537 21.4493 18.9467 23.0587 18.9467C24.6681 18.9467 25.9791 17.6537 25.9791 16.0654Z"
                    fill="#E52322"
                  />
                  <path
                    d="M42.8325 14.9743V22.075C42.8325 22.1865 42.7421 22.2769 42.6306 22.2769H38.8663C38.7548 22.2769 38.6644 22.1865 38.6644 22.075V15.1733C38.6644 14.7061 38.6373 14.1697 38.4414 13.7357C38.3509 13.5518 38.2304 13.3981 38.0857 13.2866C37.8506 13.1027 37.5462 13.0123 37.1544 13.0123C36.4281 13.0123 35.8645 13.2625 35.6867 13.6633C35.4818 14.1003 35.4818 14.6941 35.4818 15.1733V22.075C35.4818 22.1865 35.3913 22.2769 35.2798 22.2769H31.5155C31.404 22.2769 31.3136 22.1865 31.3136 22.075V9.85984C31.3136 9.74833 31.404 9.65791 31.5155 9.65791H35.0417C35.1532 9.65791 35.2437 9.74833 35.2437 9.85984V10.2004C35.2437 10.2818 35.3341 10.33 35.4004 10.2848C38.2424 8.3288 41.0092 10.5018 41.0393 10.5229C41.1388 10.6012 41.2352 10.6856 41.3226 10.773C42.6095 12.069 42.8265 13.1148 42.8265 14.9774L42.8325 14.9743Z"
                    fill="#E52322"
                  />
                  <path
                    d="M54.3424 18.5128C54.3123 18.9558 54.1978 19.423 54.0049 19.9112C53.2484 21.5176 51.5064 22.476 49.3364 22.476C49.038 22.476 48.7276 22.4579 48.4202 22.4218C47.4437 22.3072 46.5908 22.048 45.8825 21.6502C45.1532 21.1559 44.5986 20.4688 44.2249 19.6008C44.1737 19.4832 44.243 19.3476 44.3666 19.3235L47.8235 18.5791C47.9048 18.561 47.9862 18.5972 48.0314 18.6635C48.2725 19.0251 48.6854 19.1999 48.9084 19.2271C49.4359 19.2904 49.7131 19.1487 49.8488 19.0191C49.9874 18.8865 50.0507 18.7087 50.0266 18.5128C49.9723 18.0758 49.7101 17.8708 48.372 17.2349L48.3539 17.2259C48.0887 17.0993 47.7571 16.9426 47.3864 16.7587C47.1303 16.6472 46.8831 16.5297 46.6511 16.4031L46.633 16.391C46.5998 16.3729 46.5667 16.3518 46.5335 16.3308C45.334 15.6436 44.6348 14.8057 44.454 13.8413C44.1978 12.464 45.0839 11.2946 45.2617 11.0746C45.5299 10.7732 45.8403 10.508 46.1899 10.285C47.2388 9.61589 48.592 9.33861 49.9995 9.50438C50.8433 9.60383 51.6089 9.82987 52.2749 10.1795C52.5914 10.3452 52.8867 10.5411 53.1489 10.7642C53.3298 10.9239 53.8964 11.4845 54.0682 12.3404C54.0893 12.4489 54.0169 12.5544 53.9084 12.5755L50.5058 13.2626C50.4093 13.2807 50.3159 13.2265 50.2797 13.1361C50.1833 12.898 49.9753 12.6599 49.5263 12.6086C49.2279 12.5725 48.9597 12.6629 48.7849 12.8528C48.6553 12.9974 48.601 13.1783 48.6432 13.3229C48.7095 13.549 48.9416 13.9076 50.2104 14.426C50.4636 14.5255 50.6926 14.6129 50.9277 14.7093C51.2231 14.8148 51.5094 14.9293 51.7776 15.0469C52.5853 15.4266 54.4539 16.5176 54.3424 18.5098V18.5128Z"
                    fill="#E52322"
                  />
                  <path
                    d="M63.1731 19.2269L62.721 22.2107C62.7059 22.3041 62.6276 22.3764 62.5341 22.3825C62.1032 22.4066 60.9458 22.4729 60.5932 22.4729C60.5661 22.4729 60.542 22.4729 60.5239 22.4729C58.381 22.3614 57.2478 21.2613 57.2478 19.2933V13.2354C57.2478 13.1239 57.1574 13.0335 57.0459 13.0335H55.7349C55.6234 13.0335 55.533 12.9431 55.533 12.8316V9.84482C55.533 9.73331 55.6234 9.6429 55.7349 9.6429H57.0459C57.1574 9.6429 57.2478 9.55248 57.2478 9.44097V5.97805C57.2478 5.86654 57.3383 5.77612 57.4498 5.77612H60.976C61.0875 5.77612 61.1779 5.86654 61.1779 5.97805V9.44097C61.1779 9.55248 61.2683 9.6429 61.3798 9.6429H62.6909C62.8024 9.6429 62.8928 9.73331 62.8928 9.84482V12.8316C62.8928 12.9431 62.8024 13.0335 62.6909 13.0335H61.3798C61.2683 13.0335 61.1779 13.1239 61.1779 13.2354C61.1779 14.2842 61.1779 17.3795 61.1779 17.4096V17.497C61.1628 17.8798 61.1448 18.4072 61.4522 18.7206C61.633 18.9045 61.9133 18.9979 62.287 18.9979H62.9742C63.0977 18.9979 63.1912 19.1094 63.1731 19.23V19.2269Z"
                    fill="#E52322"
                  />
                  <path
                    d="M71.7655 9.86893L71.6449 12.8195C71.6389 12.934 71.5395 13.0214 71.4249 13.0124C71.0783 12.9792 70.3882 12.934 69.9813 13.0335C69.5262 13.142 69.264 13.4916 69.1887 13.6634C68.9837 14.1004 68.9837 14.4862 68.9837 14.9744V22.075C68.9837 22.1865 68.8933 22.277 68.7818 22.277H65.0175C64.906 22.277 64.8156 22.1865 64.8156 22.075V9.85989C64.8156 9.74837 64.906 9.65796 65.0175 9.65796H68.5437C68.6552 9.65796 68.7456 9.74837 68.7456 9.85989V10.2125C68.7456 10.2909 68.833 10.3391 68.8993 10.2969C69.7342 9.7755 70.7257 9.67001 71.5575 9.65796C71.6721 9.65796 71.7655 9.75139 71.7625 9.86893H71.7655Z"
                    fill="#E52322"
                  />
                  <path
                    d="M84.6889 9.85989V22.078C84.6889 22.1896 84.5985 22.28 84.487 22.28H80.9608C80.8493 22.28 80.7589 22.1896 80.7589 22.078V21.7375C80.7589 21.6561 80.6685 21.6079 80.6022 21.6531C79.7221 22.2589 78.8481 22.4698 78.0585 22.4698C76.3044 22.4698 74.9813 21.4301 74.9632 21.415C74.8638 21.3366 74.7673 21.2522 74.6799 21.1648C73.393 19.8689 73.176 18.8231 73.176 16.9605V9.85989C73.176 9.74837 73.2664 9.65796 73.3779 9.65796H77.1423C77.2538 9.65796 77.3442 9.74837 77.3442 9.85989V16.7646C77.3442 17.2318 77.3713 17.7682 77.5672 18.2022C77.6576 18.3861 77.7782 18.5398 77.9198 18.6513C78.1549 18.8351 78.4593 18.9256 78.8511 18.9256C79.5774 18.9256 80.141 18.6754 80.3189 18.2746C80.5238 17.8376 80.5238 17.2408 80.5238 16.7646V9.85989C80.5238 9.74837 80.6142 9.65796 80.7257 9.65796H84.49C84.6015 9.65796 84.692 9.74837 84.692 9.85989H84.6889Z"
                    fill="#E52322"
                  />
                  <path
                    d="M98.4744 9.92619L94.5021 20.9659L92.6516 26.2161C92.6245 26.2974 92.5461 26.3517 92.4617 26.3517H88.5437C88.4051 26.3517 88.3086 26.2161 88.3538 26.0865L89.8909 21.5386C89.906 21.4934 89.906 21.4482 89.8909 21.4029L85.6926 9.92921C85.6444 9.7966 85.7408 9.65796 85.8825 9.65796H89.3966C89.481 9.65796 89.5564 9.70919 89.5865 9.79057L91.8861 16.0081C91.9524 16.186 92.2055 16.183 92.2658 16.0021L94.3846 9.79358C94.4117 9.71221 94.4901 9.65796 94.5744 9.65796H98.2875C98.4261 9.65796 98.5256 9.7966 98.4774 9.92921L98.4744 9.92619Z"
                    fill="#E52322"
                  />
                  <path
                    d="M111.871 16.0654C111.871 19.7092 108.866 22.6748 105.171 22.6748C101.476 22.6748 98.4713 19.7092 98.4713 16.0654C98.4713 12.4217 101.476 9.45605 105.171 9.45605C108.866 9.45605 111.871 12.4217 111.871 16.0654ZM108.092 16.0654C108.092 14.4771 106.781 13.1842 105.171 13.1842C103.562 13.1842 102.251 14.4771 102.251 16.0654C102.251 17.6537 103.562 18.9467 105.171 18.9467C106.781 18.9467 108.092 17.6537 108.092 16.0654Z"
                    fill="#E52322"
                  />
                  <path
                    d="M14.6532 31.9002V44.1184C14.6532 44.2299 14.5628 44.3203 14.4512 44.3203H10.925C10.8135 44.3203 10.7231 44.2299 10.7231 44.1184V43.9315C10.7231 43.8531 10.6387 43.8079 10.5724 43.8441C9.56278 44.4167 8.42052 44.7151 7.24813 44.7151C3.55315 44.7151 0.54834 41.7495 0.54834 38.1057C0.54834 34.462 3.55315 31.4963 7.24813 31.4963C8.42052 31.4963 9.56278 31.7977 10.5724 32.3673C10.6387 32.4065 10.7231 32.3583 10.7231 32.2799V31.8942C10.7231 31.7827 10.8135 31.6922 10.925 31.6922H14.4512C14.5628 31.6922 14.6532 31.7827 14.6532 31.8942V31.9002ZM10.7231 38.1087C10.7231 36.436 9.5477 35.0768 7.8509 35.0768C6.1541 35.0768 4.77677 36.436 4.77677 38.1087C4.77677 39.7814 6.1541 41.1407 7.8509 41.1407C9.5477 41.1407 10.7231 39.7814 10.7231 38.1087Z"
                    fill="#254A96"
                  />
                  <path
                    d="M20.979 27.9309V44.1213C20.979 44.2329 20.8886 44.3233 20.7771 44.3233H17.049C16.9375 44.3233 16.847 44.2329 16.847 44.1213V27.9309C16.847 27.8194 16.9375 27.729 17.049 27.729H20.7771C20.8886 27.729 20.979 27.8194 20.979 27.9309Z"
                    fill="#254A96"
                  />
                  <path
                    d="M42.1515 41.3999C40.533 43.5307 38.0345 44.7905 35.3884 44.7905C30.6657 44.7905 26.823 40.8574 26.823 36.0232C26.823 31.1889 30.6657 27.2559 35.3884 27.2559C36.7778 27.2559 38.1038 27.5874 39.3305 28.2384C40.3793 28.7959 41.3196 29.5856 42.0641 30.5319C42.1334 30.6223 42.1153 30.7549 42.0219 30.8212L39.1858 32.8948C39.0984 32.9581 38.9779 32.946 38.9055 32.8646C38.0164 31.8249 36.7536 31.2341 35.3884 31.2341C32.8055 31.2341 30.7018 33.383 30.7018 36.0232C30.7018 38.6633 32.8025 40.8122 35.3884 40.8122C36.7898 40.8122 38.1129 40.1672 39.002 39.0702C39.0683 38.9858 39.1919 38.9737 39.2762 39.037L42.1063 41.1075C42.1997 41.1768 42.2208 41.3095 42.1515 41.4029V41.3999Z"
                    fill="#254A96"
                  />
                  <path
                    d="M56.0815 38.1118C56.0815 41.7556 53.0767 44.7212 49.3817 44.7212C45.6867 44.7212 42.6819 41.7556 42.6819 38.1118C42.6819 34.4681 45.6867 31.5024 49.3817 31.5024C53.0767 31.5024 56.0815 34.4681 56.0815 38.1118ZM52.3021 38.1118C52.3021 36.5235 50.9911 35.2306 49.3817 35.2306C47.7723 35.2306 46.4613 36.5235 46.4613 38.1118C46.4613 39.7001 47.7723 40.9931 49.3817 40.9931C50.9911 40.9931 52.3021 39.7001 52.3021 38.1118Z"
                    fill="#254A96"
                  />
                  <path
                    d="M66.9946 40.5621C66.9645 41.0051 66.85 41.4723 66.6571 41.9605C65.9006 43.5669 64.1586 44.5253 61.9886 44.5253C61.6903 44.5253 61.3798 44.5072 61.0724 44.4711C60.0959 44.3565 59.243 44.0973 58.5348 43.6995C57.8054 43.2052 57.2509 42.5181 56.8771 41.6501C56.8259 41.5326 56.8952 41.3969 57.0188 41.3728L60.4757 40.6284C60.5571 40.6103 60.6384 40.6465 60.6836 40.7128C60.9247 41.0745 61.3376 41.2493 61.5607 41.2764C62.0881 41.3397 62.3654 41.198 62.501 41.0684C62.6396 40.9358 62.7029 40.758 62.6788 40.5621C62.6246 40.1251 62.3624 39.9201 61.0242 39.2842L61.0061 39.2752C60.7409 39.1486 60.4094 38.9919 60.0387 38.808C59.7825 38.6965 59.5354 38.579 59.3033 38.4524L59.2852 38.4403C59.2521 38.4223 59.2189 38.4012 59.1858 38.3801C57.9862 37.6929 57.287 36.8551 57.1062 35.8906C56.85 34.5133 57.7361 33.3439 57.9139 33.1239C58.1821 32.8225 58.4926 32.5573 58.8422 32.3343C59.891 31.6652 61.2442 31.3879 62.6517 31.5537C63.4956 31.6531 64.2611 31.8792 64.9271 32.2288C65.2436 32.3946 65.539 32.5905 65.8012 32.8135C65.982 32.9732 66.5486 33.5338 66.7204 34.3897C66.7415 34.4982 66.6691 34.6037 66.5606 34.6248L63.158 35.312C63.0616 35.33 62.9681 35.2758 62.932 35.1854C62.8355 34.9473 62.6276 34.7092 62.1785 34.658C61.8801 34.6218 61.6119 34.7122 61.4371 34.9021C61.3075 35.0467 61.2533 35.2276 61.2954 35.3722C61.3618 35.5983 61.5938 35.9569 62.8627 36.4753C63.1158 36.5748 63.3449 36.6622 63.58 36.7586C63.8753 36.8641 64.1616 36.9786 64.4299 37.0962C65.2376 37.4759 67.1062 38.5669 66.9946 40.5591V40.5621Z"
                    fill="#254A96"
                  />
                  <path
                    d="M75.3611 41.2763L74.909 44.26C74.8939 44.3534 74.8156 44.4257 74.7221 44.4318C74.2911 44.4559 73.1338 44.5222 72.7812 44.5222C72.7541 44.5222 72.73 44.5222 72.7119 44.5222C70.569 44.4107 69.4358 43.3106 69.4358 41.3426V35.2847C69.4358 35.1732 69.3454 35.0828 69.2339 35.0828H67.9229C67.8114 35.0828 67.7209 34.9924 67.7209 34.8809V31.8941C67.7209 31.7826 67.8114 31.6922 67.9229 31.6922H69.2339C69.3454 31.6922 69.4358 31.6018 69.4358 31.4903V28.0274C69.4358 27.9159 69.5262 27.8254 69.6378 27.8254H73.164C73.2755 27.8254 73.3659 27.9159 73.3659 28.0274V31.4903C73.3659 31.6018 73.4563 31.6922 73.5678 31.6922H74.8788C74.9904 31.6922 75.0808 31.7826 75.0808 31.8941V34.8809C75.0808 34.9924 74.9904 35.0828 74.8788 35.0828H73.5678C73.4563 35.0828 73.3659 35.1732 73.3659 35.2847C73.3659 36.3335 73.3659 39.4288 73.3659 39.4589V39.5463C73.3508 39.9291 73.3327 40.4565 73.6401 40.7699C73.821 40.9538 74.1013 41.0472 74.475 41.0472H75.1622C75.2857 41.0472 75.3791 41.1587 75.3611 41.2793V41.2763Z"
                    fill="#254A96"
                  />
                  <path
                    d="M89.5955 38.1118C89.5955 41.7556 86.5907 44.7212 82.8957 44.7212C79.2007 44.7212 76.1959 41.7556 76.1959 38.1118C76.1959 34.4681 79.2007 31.5024 82.8957 31.5024C86.5907 31.5024 89.5955 34.4681 89.5955 38.1118ZM85.8161 38.1118C85.8161 36.5235 84.5051 35.2306 82.8957 35.2306C81.2863 35.2306 79.9753 36.5235 79.9753 38.1118C79.9753 39.7001 81.2863 40.9931 82.8957 40.9931C84.5051 40.9931 85.8161 39.7001 85.8161 38.1118Z"
                    fill="#254A96"
                  />
                </svg>